<?xml version="1.0" encoding="UTF-8" standalone="no"?>
<!DOCTYPE svg PUBLIC "-//W3C//DTD SVG 1.0//EN" "http://www.w3.org/TR/2001/REC-SVG-20010904/DTD/svg10.dtd">
<!-- Generated by Microsoft Visio 11.0, SVG Export, v1.0 infolab.svg Page-1 -->
<svg xmlns="http://www.w3.org/2000/svg" xmlns:v="http://schemas.microsoft.com/visio/2003/SVGExtensions/" width="8.6578in"
		height="1.41764in" viewBox="0 0 623.361 102.07" xml:space="preserve" color-interpolation-filters="sRGB" class="st13">
	<v:documentProperties v:langID="1033" v:metric="true" v:viewMarkup="false"/>

	<style type="text/css">
	<![CDATA[
		.st1 {fill:#4e5d60;stroke:none;stroke-linecap:round;stroke-linejoin:round;stroke-width:0.72}
		.st2 {fill:#427772;stroke:none;stroke-linecap:round;stroke-linejoin:round;stroke-width:0.72}
		.st3 {fill:#6bb6b0;stroke:none;stroke-linecap:round;stroke-linejoin:round;stroke-width:0.72}
		.st4 {fill:#000000;stroke:none;stroke-linecap:round;stroke-linejoin:round;stroke-width:0.72}
		.st5 {fill:#589188;stroke:none;stroke-linecap:round;stroke-linejoin:round;stroke-width:0.72}
		.st6 {fill:#373535;stroke:none;stroke-linecap:round;stroke-linejoin:round;stroke-width:0.72}
		.st7 {fill:#ff9900;stroke:none;stroke-linecap:round;stroke-linejoin:round;stroke-width:0.72}
		.st8 {fill:#385c5b;stroke:none;stroke-linecap:round;stroke-linejoin:round;stroke-width:0.72}
		.st9 {fill:#008080;stroke:none;stroke-linecap:round;stroke-linejoin:round;stroke-width:0.72}
		.st10 {fill:#4a4848;stroke:none;stroke-linecap:round;stroke-linejoin:round;stroke-width:0.72}
		.st11 {fill:#91c7c4;stroke:none;stroke-linecap:round;stroke-linejoin:round;stroke-width:0.72}
		.st12 {fill:#996600;stroke:none;stroke-linecap:round;stroke-linejoin:round;stroke-width:0.72}
		.st13 {fill:none;fill-rule:evenodd;font-size:12;overflow:visible;stroke-linecap:square;stroke-miterlimit:3}
	]]>
	</style>

	<g v:mID="0" v:index="1" v:groupContext="foregroundPage">
		<title>Page-1</title>
		<v:pageProperties v:drawingScale="0.0393701" v:pageScale="0.0393701" v:drawingUnits="24" v:shadowOffsetX="8.50394"
				v:shadowOffsetY="-8.50394"/>
		<v:layer v:name="Connector" v:index="0"/>
		<g id="shape3-1" v:mID="3" v:groupContext="shape" transform="translate(14.8932,-23.6806)">
			<title>Sheet.3</title>
			<rect x="0" y="30.0699" width="72.2835" height="72" class="st1"/>
		</g>
		<g id="shape29-3" v:mID="29" v:groupContext="shape" transform="translate(77.2554,-23.6806)">
			<title>Sheet.29</title>
			<path d="M90.51 102.07 L83.62 48.33 L99.21 48.33 L113.39 37.07 L106.3 30.03 L0 24.4 L13.51 102.07 L90.51 102.07 Z"
					class="st2"/>
		</g>
		<g id="shape7-5" v:mID="7" v:groupContext="shape" transform="translate(352.216,-0.72)">
			<title>Sheet.7</title>
			<rect x="0" y="5.69197" width="226.772" height="96.378" class="st3"/>
		</g>
		<g id="shape28-7" v:mID="28" v:groupContext="shape" transform="translate(560.279,-0.72)">
			<title>Sheet.28</title>
			<path d="M42.24 102.07 L42.24 12.78 L20.37 12.78 L0 102.07 L42.24 102.07 Z" class="st4"/>
		</g>
		<g id="shape8-9" v:mID="8" v:groupContext="shape" transform="translate(172.216,-0.72)">
			<title>Sheet.8</title>
			<rect x="0" y="30.0699" width="72.2835" height="72" class="st1"/>
		</g>
		<g id="shape9-11" v:mID="9" v:groupContext="shape" transform="translate(231.46,-0.72)">
			<title>Sheet.9</title>
			<path d="M120.76 102.07 L120.76 28.37 L0 24.97 L14.66 102.07 L120.76 102.07 Z" class="st5"/>
		</g>
		<g id="group31-13" transform="translate(99.2517,-70.1743) rotate(-2)" v:mID="31" v:groupContext="group">
			<title>Sheet.31</title>
			<g id="shape37-14" v:mID="37" v:groupContext="shape" transform="translate(8.99281E-015,-4.25197)">
				<title>Sheet.37</title>
				<path d="M8.52 92.66 L8.52 102.07 L0 101.75 L0 92.11 L8.52 92.66 Z" class="st6"/>
			</g>
			<g id="shape36-16" v:mID="36" v:groupContext="shape" transform="translate(11.3386,-3.56178)">
				<title>Sheet.36</title>
				<path d="M8.52 92.66 L8.52 102.07 L0 101.75 L0 92.11 L8.52 92.66 Z" class="st6"/>
			</g>
			<g id="shape38-18" v:mID="38" v:groupContext="shape" transform="translate(22.6581,-2.87159)">
				<title>Sheet.38</title>
				<path d="M8.52 92.66 L8.52 102.07 L0 101.75 L0 92.11 L8.52 92.66 Z" class="st6"/>
			</g>
			<g id="shape39-20" v:mID="39" v:groupContext="shape" transform="translate(33.9967,-2.14446)">
				<title>Sheet.39</title>
				<path d="M8.52 92.66 L8.52 102.07 L0 101.75 L0 92.11 L8.52 92.66 Z" class="st6"/>
			</g>
			<g id="shape40-22" v:mID="40" v:groupContext="shape" transform="translate(45.3543,-1.41732)">
				<title>Sheet.40</title>
				<path d="M8.52 92.66 L8.52 102.07 L0 101.75 L0 92.11 L8.52 92.66 Z" class="st6"/>
			</g>
			<g id="shape41-24" v:mID="41" v:groupContext="shape" transform="translate(56.6929,-0.727136)">
				<title>Sheet.41</title>
				<path d="M8.52 92.66 L8.52 102.07 L0 101.75 L0 92.11 L8.52 92.66 Z" class="st6"/>
			</g>
			<g id="shape42-26" v:mID="42" v:groupContext="shape" transform="translate(68.0125,0)">
				<title>Sheet.42</title>
				<path d="M8.52 92.66 L8.52 102.07 L0 101.75 L0 92.11 L8.52 92.66 Z" class="st6"/>
			</g>
		</g>
		<g id="group43-28" transform="translate(99.2517,-50.2358) rotate(-2)" v:mID="43" v:groupContext="group">
			<title>Sheet.43</title>
			<g id="shape44-29" v:mID="44" v:groupContext="shape" transform="translate(8.99281E-015,-4.25197)">
				<title>Sheet.44</title>
				<path d="M8.52 92.66 L8.52 102.07 L0 101.75 L0 92.11 L8.52 92.66 Z" class="st6"/>
			</g>
			<g id="shape45-31" v:mID="45" v:groupContext="shape" transform="translate(11.3386,-3.56178)">
				<title>Sheet.45</title>
				<path d="M8.52 92.66 L8.52 102.07 L0 101.75 L0 92.11 L8.52 92.66 Z" class="st6"/>
			</g>
			<g id="shape46-33" v:mID="46" v:groupContext="shape" transform="translate(22.6581,-2.87159)">
				<title>Sheet.46</title>
				<path d="M8.52 92.66 L8.52 102.07 L0 101.75 L0 92.11 L8.52 92.66 Z" class="st6"/>
			</g>
			<g id="shape47-35" v:mID="47" v:groupContext="shape" transform="translate(33.9967,-2.14446)">
				<title>Sheet.47</title>
				<path d="M8.52 92.66 L8.52 102.07 L0 101.75 L0 92.11 L8.52 92.66 Z" class="st6"/>
			</g>
			<g id="shape48-37" v:mID="48" v:groupContext="shape" transform="translate(45.3543,-1.41732)">
				<title>Sheet.48</title>
				<path d="M8.52 92.66 L8.52 102.07 L0 101.75 L0 92.11 L8.52 92.66 Z" class="st6"/>
			</g>
			<g id="shape49-39" v:mID="49" v:groupContext="shape" transform="translate(56.6929,-0.727136)">
				<title>Sheet.49</title>
				<path d="M8.52 92.66 L8.52 102.07 L0 101.75 L0 92.11 L8.52 92.66 Z" class="st6"/>
			</g>
			<g id="shape50-41" v:mID="50" v:groupContext="shape" transform="translate(68.0125,0)">
				<title>Sheet.50</title>
				<path d="M8.52 92.66 L8.52 102.07 L0 101.75 L0 92.11 L8.52 92.66 Z" class="st6"/>
			</g>
		</g>
		<g id="group67-43" transform="translate(99.2517,-30.3933) rotate(-2)" v:mID="67" v:groupContext="group">
			<title>Sheet.67</title>
			<g id="shape68-44" v:mID="68" v:groupContext="shape" transform="translate(8.99281E-015,-4.25197)">
				<title>Sheet.68</title>
				<path d="M8.52 92.66 L8.52 102.07 L0 101.75 L0 92.11 L8.52 92.66 Z" class="st6"/>
			</g>
			<g id="shape69-46" v:mID="69" v:groupContext="shape" transform="translate(11.3386,-3.56178)">
				<title>Sheet.69</title>
				<path d="M8.52 92.66 L8.52 102.07 L0 101.75 L0 92.11 L8.52 92.66 Z" class="st6"/>
			</g>
			<g id="shape70-48" v:mID="70" v:groupContext="shape" transform="translate(22.6581,-2.87159)">
				<title>Sheet.70</title>
				<path d="M8.52 92.66 L8.52 102.07 L0 101.75 L0 92.11 L8.52 92.66 Z" class="st6"/>
			</g>
			<g id="shape71-50" v:mID="71" v:groupContext="shape" transform="translate(33.9967,-2.14446)">
				<title>Sheet.71</title>
				<path d="M8.52 92.66 L8.52 102.07 L0 101.75 L0 92.11 L8.52 92.66 Z" class="st6"/>
			</g>
			<g id="shape72-52" v:mID="72" v:groupContext="shape" transform="translate(45.3543,-1.41732)">
				<title>Sheet.72</title>
				<path d="M8.52 92.66 L8.52 102.07 L0 101.75 L0 92.11 L8.52 92.66 Z" class="st6"/>
			</g>
			<g id="shape73-54" v:mID="73" v:groupContext="shape" transform="translate(56.6929,-0.727136)">
				<title>Sheet.73</title>
				<path d="M8.52 92.66 L8.52 102.07 L0 101.75 L0 92.11 L8.52 92.66 Z" class="st6"/>
			</g>
			<g id="shape74-56" v:mID="74" v:groupContext="shape" transform="translate(68.0125,0)">
				<title>Sheet.74</title>
				<path d="M8.52 92.66 L8.52 102.07 L0 101.75 L0 92.11 L8.52 92.66 Z" class="st6"/>
			</g>
		</g>
		<g id="group51-58" transform="translate(265.303,-48.8185) rotate(-2)" v:mID="51" v:groupContext="group">
			<title>Sheet.51</title>
			<g id="shape52-59" v:mID="52" v:groupContext="shape" transform="translate(8.99281E-015,-4.25197)">
				<title>Sheet.52</title>
				<path d="M8.52 92.66 L8.52 102.07 L0 101.75 L0 92.11 L8.52 92.66 Z" class="st6"/>
			</g>
			<g id="shape53-61" v:mID="53" v:groupContext="shape" transform="translate(11.3386,-3.56178)">
				<title>Sheet.53</title>
				<path d="M8.52 92.66 L8.52 102.07 L0 101.75 L0 92.11 L8.52 92.66 Z" class="st6"/>
			</g>
			<g id="shape54-63" v:mID="54" v:groupContext="shape" transform="translate(22.6581,-2.87159)">
				<title>Sheet.54</title>
				<path d="M8.52 92.66 L8.52 102.07 L0 101.75 L0 92.11 L8.52 92.66 Z" class="st6"/>
			</g>
			<g id="shape55-65" v:mID="55" v:groupContext="shape" transform="translate(33.9967,-2.14446)">
				<title>Sheet.55</title>
				<path d="M8.52 92.66 L8.52 102.07 L0 101.75 L0 92.11 L8.52 92.66 Z" class="st6"/>
			</g>
			<g id="shape56-67" v:mID="56" v:groupContext="shape" transform="translate(45.3543,-1.41732)">
				<title>Sheet.56</title>
				<path d="M8.52 92.66 L8.52 102.07 L0 101.75 L0 92.11 L8.52 92.66 Z" class="st6"/>
			</g>
			<g id="shape57-69" v:mID="57" v:groupContext="shape" transform="translate(56.6929,-0.727136)">
				<title>Sheet.57</title>
				<path d="M8.52 92.66 L8.52 102.07 L0 101.75 L0 92.11 L8.52 92.66 Z" class="st6"/>
			</g>
			<g id="shape58-71" v:mID="58" v:groupContext="shape" transform="translate(68.0125,0)">
				<title>Sheet.58</title>
				<path d="M8.52 92.66 L8.52 102.07 L0 101.75 L0 92.11 L8.52 92.66 Z" class="st6"/>
			</g>
		</g>
		<g id="group59-73" transform="translate(265.303,-28.2296) rotate(-2)" v:mID="59" v:groupContext="group">
			<title>Sheet.59</title>
			<g id="shape60-74" v:mID="60" v:groupContext="shape" transform="translate(8.99281E-015,-4.25197)">
				<title>Sheet.60</title>
				<path d="M8.52 92.66 L8.52 102.07 L0 101.75 L0 92.11 L8.52 92.66 Z" class="st6"/>
			</g>
			<g id="shape61-76" v:mID="61" v:groupContext="shape" transform="translate(11.3386,-3.56178)">
				<title>Sheet.61</title>
				<path d="M8.52 92.66 L8.52 102.07 L0 101.75 L0 92.11 L8.52 92.66 Z" class="st6"/>
			</g>
			<g id="shape62-78" v:mID="62" v:groupContext="shape" transform="translate(22.6581,-2.87159)">
				<title>Sheet.62</title>
				<path d="M8.52 92.66 L8.52 102.07 L0 101.75 L0 92.11 L8.52 92.66 Z" class="st6"/>
			</g>
			<g id="shape63-80" v:mID="63" v:groupContext="shape" transform="translate(33.9967,-2.14446)">
				<title>Sheet.63</title>
				<path d="M8.52 92.66 L8.52 102.07 L0 101.75 L0 92.11 L8.52 92.66 Z" class="st6"/>
			</g>
			<g id="shape64-82" v:mID="64" v:groupContext="shape" transform="translate(45.3543,-1.41732)">
				<title>Sheet.64</title>
				<path d="M8.52 92.66 L8.52 102.07 L0 101.75 L0 92.11 L8.52 92.66 Z" class="st6"/>
			</g>
			<g id="shape65-84" v:mID="65" v:groupContext="shape" transform="translate(56.6929,-0.727136)">
				<title>Sheet.65</title>
				<path d="M8.52 92.66 L8.52 102.07 L0 101.75 L0 92.11 L8.52 92.66 Z" class="st6"/>
			</g>
			<g id="shape66-86" v:mID="66" v:groupContext="shape" transform="translate(68.0125,0)">
				<title>Sheet.66</title>
				<path d="M8.52 92.66 L8.52 102.07 L0 101.75 L0 92.11 L8.52 92.66 Z" class="st6"/>
			</g>
		</g>
		<g id="group75-88" transform="translate(265.303,-7.96587) rotate(-2)" v:mID="75" v:groupContext="group">
			<title>Sheet.75</title>
			<g id="shape76-89" v:mID="76" v:groupContext="shape" transform="translate(8.99281E-015,-4.25197)">
				<title>Sheet.76</title>
				<path d="M8.52 92.66 L8.52 102.07 L0 101.75 L0 92.11 L8.52 92.66 Z" class="st6"/>
			</g>
			<g id="shape77-91" v:mID="77" v:groupContext="shape" transform="translate(11.3386,-3.56178)">
				<title>Sheet.77</title>
				<path d="M8.52 92.66 L8.52 102.07 L0 101.75 L0 92.11 L8.52 92.66 Z" class="st6"/>
			</g>
			<g id="shape78-93" v:mID="78" v:groupContext="shape" transform="translate(22.6581,-2.87159)">
				<title>Sheet.78</title>
				<path d="M8.52 92.66 L8.52 102.07 L0 101.75 L0 92.11 L8.52 92.66 Z" class="st6"/>
			</g>
			<g id="shape79-95" v:mID="79" v:groupContext="shape" transform="translate(33.9967,-2.14446)">
				<title>Sheet.79</title>
				<path d="M8.52 92.66 L8.52 102.07 L0 101.75 L0 92.11 L8.52 92.66 Z" class="st6"/>
			</g>
			<g id="shape80-97" v:mID="80" v:groupContext="shape" transform="translate(45.3543,-1.41732)">
				<title>Sheet.80</title>
				<path d="M8.52 92.66 L8.52 102.07 L0 101.75 L0 92.11 L8.52 92.66 Z" class="st6"/>
			</g>
			<g id="shape81-99" v:mID="81" v:groupContext="shape" transform="translate(56.6929,-0.727136)">
				<title>Sheet.81</title>
				<path d="M8.52 92.66 L8.52 102.07 L0 101.75 L0 92.11 L8.52 92.66 Z" class="st6"/>
			</g>
			<g id="shape82-101" v:mID="82" v:groupContext="shape" transform="translate(68.0125,0)">
				<title>Sheet.82</title>
				<path d="M8.52 92.66 L8.52 102.07 L0 101.75 L0 92.11 L8.52 92.66 Z" class="st6"/>
			</g>
		</g>
		<g id="group83-103" transform="translate(358.862,-62.9248) rotate(-3)" v:mID="83" v:groupContext="group">
			<title>Sheet.83</title>
			<g id="shape84-104" v:mID="84" v:groupContext="shape" transform="translate(1.09912E-014,-4.25197)">
				<title>Sheet.84</title>
				<path d="M11.04 92.66 L11.04 102.07 L0 101.75 L0 92.11 L11.04 92.66 Z" class="st6"/>
			</g>
			<g id="shape85-106" v:mID="85" v:groupContext="shape" transform="translate(14.681,-3.56178)">
				<title>Sheet.85</title>
				<path d="M11.04 92.66 L11.04 102.07 L0 101.75 L0 92.11 L11.04 92.66 Z" class="st6"/>
			</g>
			<g id="shape86-108" v:mID="86" v:groupContext="shape" transform="translate(29.3374,-2.87159)">
				<title>Sheet.86</title>
				<path d="M11.04 92.66 L11.04 102.07 L0 101.75 L0 92.11 L11.04 92.66 Z" class="st6"/>
			</g>
			<g id="shape87-110" v:mID="87" v:groupContext="shape" transform="translate(44.0185,-2.14446)">
				<title>Sheet.87</title>
				<path d="M11.04 92.66 L11.04 102.07 L0 101.75 L0 92.11 L11.04 92.66 Z" class="st6"/>
			</g>
			<g id="shape88-112" v:mID="88" v:groupContext="shape" transform="translate(58.7242,-1.41732)">
				<title>Sheet.88</title>
				<path d="M11.04 92.66 L11.04 102.07 L0 101.75 L0 92.11 L11.04 92.66 Z" class="st6"/>
			</g>
			<g id="shape89-114" v:mID="89" v:groupContext="shape" transform="translate(73.4052,-0.727136)">
				<title>Sheet.89</title>
				<path d="M11.04 92.66 L11.04 102.07 L0 101.75 L0 92.11 L11.04 92.66 Z" class="st6"/>
			</g>
			<g id="shape90-116" v:mID="90" v:groupContext="shape" transform="translate(88.0616,0)">
				<title>Sheet.90</title>
				<path d="M11.04 92.66 L11.04 102.07 L0 101.75 L0 92.11 L11.04 92.66 Z" class="st6"/>
			</g>
		</g>
		<g id="shape11-118" v:mID="11" v:groupContext="shape" transform="translate(163.712,-0.72)">
			<title>Sheet.11</title>
			<path d="M12.09 102.07 L20.55 30.46 L0 30.46 L9.91 102.07 L12.09 102.07 Z" class="st6"/>
		</g>
		<g id="shape10-120" v:mID="10" v:groupContext="shape" transform="translate(352.216,-0.72)">
			<title>Sheet.10</title>
			<path d="M0 102.07 L0 28.37 L73.7 102.07 L0 102.07 Z" class="st2"/>
		</g>
		<g id="group14-122" transform="translate(359.598,-41.2675) rotate(-3)" v:mID="14" v:groupContext="group">
			<title>Sheet.14</title>
			<g id="shape32-123" v:mID="32" v:groupContext="shape" transform="translate(1.09912E-014,-4.25197)">
				<title>Sheet.32</title>
				<path d="M11.04 92.66 L11.04 102.07 L0 101.75 L0 92.11 L11.04 92.66 Z" class="st6"/>
			</g>
			<g id="shape33-125" v:mID="33" v:groupContext="shape" transform="translate(14.681,-3.56178)">
				<title>Sheet.33</title>
				<path d="M11.04 92.66 L11.04 102.07 L0 101.75 L0 92.11 L11.04 92.66 Z" class="st6"/>
			</g>
			<g id="shape34-127" v:mID="34" v:groupContext="shape" transform="translate(29.3374,-2.87159)">
				<title>Sheet.34</title>
				<path d="M11.04 92.66 L11.04 102.07 L0 101.75 L0 92.11 L11.04 92.66 Z" class="st6"/>
			</g>
			<g id="shape107-129" v:mID="107" v:groupContext="shape" transform="translate(44.0185,-2.14446)">
				<title>Sheet.107</title>
				<path d="M11.04 92.66 L11.04 102.07 L0 101.75 L0 92.11 L11.04 92.66 Z" class="st6"/>
			</g>
			<g id="shape108-131" v:mID="108" v:groupContext="shape" transform="translate(58.7242,-1.41732)">
				<title>Sheet.108</title>
				<path d="M11.04 92.66 L11.04 102.07 L0 101.75 L0 92.11 L11.04 92.66 Z" class="st6"/>
			</g>
			<g id="shape109-133" v:mID="109" v:groupContext="shape" transform="translate(73.4052,-0.727136)">
				<title>Sheet.109</title>
				<path d="M11.04 92.66 L11.04 102.07 L0 101.75 L0 92.11 L11.04 92.66 Z" class="st6"/>
			</g>
			<g id="shape110-135" v:mID="110" v:groupContext="shape" transform="translate(88.0616,0)">
				<title>Sheet.110</title>
				<path d="M11.04 92.66 L11.04 102.07 L0 101.75 L0 92.11 L11.04 92.66 Z" class="st6"/>
			</g>
		</g>
		<g id="group111-137" transform="translate(358.427,-18.5904) rotate(-3)" v:mID="111" v:groupContext="group">
			<title>Sheet.111</title>
			<g id="shape112-138" v:mID="112" v:groupContext="shape" transform="translate(1.09912E-014,-4.25197)">
				<title>Sheet.112</title>
				<path d="M11.04 92.66 L11.04 102.07 L0 101.75 L0 92.11 L11.04 92.66 Z" class="st6"/>
			</g>
			<g id="shape113-140" v:mID="113" v:groupContext="shape" transform="translate(14.681,-3.56178)">
				<title>Sheet.113</title>
				<path d="M11.04 92.66 L11.04 102.07 L0 101.75 L0 92.11 L11.04 92.66 Z" class="st6"/>
			</g>
			<g id="shape114-142" v:mID="114" v:groupContext="shape" transform="translate(29.3374,-2.87159)">
				<title>Sheet.114</title>
				<path d="M11.04 92.66 L11.04 102.07 L0 101.75 L0 92.11 L11.04 92.66 Z" class="st6"/>
			</g>
			<g id="shape115-144" v:mID="115" v:groupContext="shape" transform="translate(44.0185,-2.14446)">
				<title>Sheet.115</title>
				<path d="M11.04 92.66 L11.04 102.07 L0 101.75 L0 92.11 L11.04 92.66 Z" class="st6"/>
			</g>
			<g id="shape116-146" v:mID="116" v:groupContext="shape" transform="translate(58.7242,-1.41732)">
				<title>Sheet.116</title>
				<path d="M11.04 92.66 L11.04 102.07 L0 101.75 L0 92.11 L11.04 92.66 Z" class="st6"/>
			</g>
			<g id="shape117-148" v:mID="117" v:groupContext="shape" transform="translate(73.4052,-0.727136)">
				<title>Sheet.117</title>
				<path d="M11.04 92.66 L11.04 102.07 L0 101.75 L0 92.11 L11.04 92.66 Z" class="st6"/>
			</g>
			<g id="shape118-150" v:mID="118" v:groupContext="shape" transform="translate(88.0616,0)">
				<title>Sheet.118</title>
				<path d="M11.04 92.66 L11.04 102.07 L0 101.75 L0 92.11 L11.04 92.66 Z" class="st6"/>
			</g>
		</g>
		<g id="group25-152" transform="translate(431.303,-12.0586)" v:mID="25" v:groupContext="group">
			<title>Sheet.25</title>
			<g id="shape27-153" v:mID="27" v:groupContext="shape" transform="translate(2.83465,0)">
				<title>Sheet.27</title>
				<rect x="0" y="28.3691" width="107.717" height="73.7008" class="st6"/>
			</g>
			<g id="group15-155" transform="translate(3.19744E-014,-2.83465)" v:mID="15" v:groupContext="group">
				<title>Sheet.15</title>
				<g id="shape18-156" v:mID="18" v:groupContext="shape">
					<title>Sheet.18</title>
					<rect x="0" y="28.3691" width="107.717" height="73.7008" class="st7"/>
				</g>
				<g id="shape19-158" v:mID="19" v:groupContext="shape" transform="translate(5.66929,-5.66929)">
					<title>Sheet.19</title>
					<rect x="0" y="39.7077" width="96.378" height="62.3622" class="st1"/>
				</g>
			</g>
		</g>
		<g id="shape24-160" v:mID="24" v:groupContext="shape" transform="translate(197.444,-0.72)">
			<title>Sheet.24</title>
			<rect x="0" y="39.4243" width="9.92126" height="62.6457" class="st6"/>
		</g>
		<g id="shape20-162" v:mID="20" v:groupContext="shape" transform="translate(196.027,-0.72)">
			<title>Sheet.20</title>
			<rect x="0" y="38.2904" width="9.92126" height="63.7795" class="st7"/>
		</g>
		<g id="shape21-164" v:mID="21" v:groupContext="shape" transform="translate(602.515,-0.72)">
			<title>Sheet.21</title>
			<path d="M0.24 102.07 L15.31 11.93 L0 11.93 L0 102.07 L0.24 102.07 Z" class="st8"/>
		</g>
		<g id="shape23-166" v:mID="23" v:groupContext="shape" transform="translate(554.918,-0.72)">
			<title>Sheet.23</title>
			<path d="M52.36 102.07 L67.72 5.69 L20.95 5.69 L0 102.07 L7.09 102.07 L26.62 12.78 L62.05 12.78 L47.82 102.07 L52.36
						 102.07 Z" class="st9"/>
		</g>
		<g id="shape16-168" v:mID="16" v:groupContext="shape" transform="translate(584.657,-0.72)">
			<title>Sheet.16</title>
			<rect x="0" y="26.9518" width="10.8071" height="75.1181" class="st7"/>
		</g>
		<g id="shape119-170" v:mID="119" v:groupContext="shape" transform="translate(436.972,-20.5625)">
			<title>Sheet.119</title>
			<path d="M0 52.46 L18.43 57 L12.76 102.07 L0 102.07 L0 52.46 Z" class="st10"/>
		</g>
		<g id="shape12-172" v:mID="12" v:groupContext="shape" transform="translate(8.51528,-23.6806)">
			<title>Sheet.12</title>
			<path d="M12.24 102.07 L20.55 30.07 L0 30.07 L9.74 102.07 L12.24 102.07 Z" class="st6"/>
		</g>
		<g id="shape2-174" v:mID="2" v:groupContext="shape" transform="translate(42.9562,-23.6806)">
			<title>Sheet.2</title>
			<rect x="0" y="39.9912" width="9.92126" height="62.0787" class="st6"/>
		</g>
		<g id="shape26-176" v:mID="26" v:groupContext="shape" transform="translate(41.5389,-23.6806)">
			<title>Sheet.26</title>
			<rect x="0" y="38.5739" width="9.92126" height="63.4961" class="st7"/>
		</g>
		<g id="shape97-178" v:mID="97" v:groupContext="shape" transform="translate(0.72,-23.6806)">
			<title>Sheet.97</title>
			<path d="M91.1 102.07 L76.54 24.4 L0 24.4 L12.14 102.07 L19.39 102.07 L7.8 30.07 L70.33 30.07 L82.78 102.07 L91.1 102.07
						 Z" class="st3"/>
		</g>
		<g id="shape4-180" v:mID="4" v:groupContext="shape" transform="translate(175.901,-77.2554)">
			<title>Sheet.4</title>
			<path d="M0 102.07 L17.01 87.9 L41.1 87.9 L45.35 102.07 L0 102.07 Z" class="st11"/>
		</g>
		<g id="shape5-182" v:mID="5" v:groupContext="shape" transform="translate(204.814,-77.2554)">
			<title>Sheet.5</title>
			<path d="M2.83 102.07 L0 87.9 L12.76 87.9 L17.01 102.07 L2.83 102.07 Z" class="st6"/>
		</g>
		<g id="shape35-184" v:mID="35" v:groupContext="shape" transform="translate(156.626,-0.72)">
			<title>Sheet.35</title>
			<path d="M90.99 102.07 L76.54 24.97 L0 24.97 L12.05 102.07 L19.3 102.07 L7.8 30.64 L70.33 30.64 L82.69 102.07 L90.99
						 102.07 Z" class="st3"/>
		</g>
		<g id="shape6-186" v:mID="6" v:groupContext="shape" transform="translate(41.5276,-77.2441)">
			<title>Sheet.6</title>
			<rect x="0" y="92.1487" width="9.92126" height="9.92126" class="st12"/>
		</g>
		<g id="shape13-188" v:mID="13" v:groupContext="shape" transform="translate(196.016,-54.5669)">
			<title>Sheet.13</title>
			<rect x="0" y="92.1487" width="9.92126" height="9.92126" class="st12"/>
		</g>
		<g id="shape17-190" v:mID="17" v:groupContext="shape" transform="translate(584.469,-0.708661)">
			<title>Sheet.17</title>
			<rect x="0" y="26.9518" width="5.98819" height="75.1181" class="st12"/>
		</g>
	</g>
</svg>
